<?xml version="1.0" encoding="UTF-8"?>
<!DOCTYPE svg PUBLIC "-//W3C//DTD SVG 1.1//EN" "http://www.w3.org/Graphics/SVG/1.1/DTD/svg11.dtd">
<svg width="168mm" height="99mm" viewBox="0 0 16800 9900" version="1.1" xmlns="http://www.w3.org/2000/svg" xmlns:xlink="http://www.w3.org/1999/xlink" stroke-width="28.222" stroke-linejoin="round" xml:space="preserve">
 <path fill="rgb(255,255,255)" stroke="none" d="M 8412,9855 L 0,9855 0,0 16823,0 16823,9855 8412,9855 Z"/>
 <path fill="none" stroke="rgb(179,179,179)" stroke-linejoin="round" d="M 9227,7660 L 1968,7660 1968,396 16487,396 16487,7660 9227,7660 Z"/>
 <path fill="none" stroke="rgb(179,179,179)" stroke-linejoin="round" d="M 16487,7659 L 1968,7659"/>
 <path fill="none" stroke="rgb(179,179,179)" stroke-linejoin="round" d="M 16487,7053 L 1968,7053"/>
 <path fill="none" stroke="rgb(179,179,179)" stroke-linejoin="round" d="M 16487,6448 L 1968,6448"/>
 <path fill="none" stroke="rgb(179,179,179)" stroke-linejoin="round" d="M 16487,5842 L 1968,5842"/>
 <path fill="none" stroke="rgb(179,179,179)" stroke-linejoin="round" d="M 16487,5237 L 1968,5237"/>
 <path fill="none" stroke="rgb(179,179,179)" stroke-linejoin="round" d="M 16487,4632 L 1968,4632"/>
 <path fill="none" stroke="rgb(179,179,179)" stroke-linejoin="round" d="M 16487,4027 L 1968,4027"/>
 <path fill="none" stroke="rgb(179,179,179)" stroke-linejoin="round" d="M 16487,3422 L 1968,3422"/>
 <path fill="none" stroke="rgb(179,179,179)" stroke-linejoin="round" d="M 16487,2816 L 1968,2816"/>
 <path fill="none" stroke="rgb(179,179,179)" stroke-linejoin="round" d="M 16487,2211 L 1968,2211"/>
 <path fill="none" stroke="rgb(179,179,179)" stroke-linejoin="round" d="M 16487,1605 L 1968,1605"/>
 <path fill="none" stroke="rgb(179,179,179)" stroke-linejoin="round" d="M 16487,1000 L 1968,1000"/>
 <path fill="none" stroke="rgb(179,179,179)" stroke-linejoin="round" d="M 16487,394 L 1968,394"/>
 <path fill="none" stroke="rgb(179,179,179)" stroke-linejoin="round" d="M 1968,7809 L 1968,7659"/>
 <path fill="none" stroke="rgb(179,179,179)" stroke-linejoin="round" d="M 1968,7809 L 1968,7659"/>
 <path fill="none" stroke="rgb(179,179,179)" stroke-linejoin="round" d="M 4388,7809 L 4388,7659"/>
 <path fill="none" stroke="rgb(179,179,179)" stroke-linejoin="round" d="M 4388,7809 L 4388,7659"/>
 <path fill="none" stroke="rgb(179,179,179)" stroke-linejoin="round" d="M 6808,7809 L 6808,7659"/>
 <path fill="none" stroke="rgb(179,179,179)" stroke-linejoin="round" d="M 6808,7809 L 6808,7659"/>
 <path fill="none" stroke="rgb(179,179,179)" stroke-linejoin="round" d="M 9227,7809 L 9227,7659"/>
 <path fill="none" stroke="rgb(179,179,179)" stroke-linejoin="round" d="M 9227,7809 L 9227,7659"/>
 <path fill="none" stroke="rgb(179,179,179)" stroke-linejoin="round" d="M 11647,7809 L 11647,7659"/>
 <path fill="none" stroke="rgb(179,179,179)" stroke-linejoin="round" d="M 11647,7809 L 11647,7659"/>
 <path fill="none" stroke="rgb(179,179,179)" stroke-linejoin="round" d="M 14066,7809 L 14066,7659"/>
 <path fill="none" stroke="rgb(179,179,179)" stroke-linejoin="round" d="M 14066,7809 L 14066,7659"/>
 <path fill="none" stroke="rgb(179,179,179)" stroke-linejoin="round" d="M 16487,7809 L 16487,7659"/>
 <path fill="none" stroke="rgb(179,179,179)" stroke-linejoin="round" d="M 16487,7809 L 16487,7659"/>
 <path fill="none" stroke="rgb(179,179,179)" stroke-linejoin="round" d="M 1968,7659 L 16487,7659"/>
 <path fill="none" stroke="rgb(179,179,179)" stroke-linejoin="round" d="M 1818,7659 L 1968,7659"/>
 <path fill="none" stroke="rgb(179,179,179)" stroke-linejoin="round" d="M 1818,7659 L 1968,7659"/>
 <path fill="none" stroke="rgb(179,179,179)" stroke-linejoin="round" d="M 1818,7053 L 1968,7053"/>
 <path fill="none" stroke="rgb(179,179,179)" stroke-linejoin="round" d="M 1818,7053 L 1968,7053"/>
 <path fill="none" stroke="rgb(179,179,179)" stroke-linejoin="round" d="M 1818,6448 L 1968,6448"/>
 <path fill="none" stroke="rgb(179,179,179)" stroke-linejoin="round" d="M 1818,6448 L 1968,6448"/>
 <path fill="none" stroke="rgb(179,179,179)" stroke-linejoin="round" d="M 1818,5842 L 1968,5842"/>
 <path fill="none" stroke="rgb(179,179,179)" stroke-linejoin="round" d="M 1818,5842 L 1968,5842"/>
 <path fill="none" stroke="rgb(179,179,179)" stroke-linejoin="round" d="M 1818,5237 L 1968,5237"/>
 <path fill="none" stroke="rgb(179,179,179)" stroke-linejoin="round" d="M 1818,5237 L 1968,5237"/>
 <path fill="none" stroke="rgb(179,179,179)" stroke-linejoin="round" d="M 1818,4632 L 1968,4632"/>
 <path fill="none" stroke="rgb(179,179,179)" stroke-linejoin="round" d="M 1818,4632 L 1968,4632"/>
 <path fill="none" stroke="rgb(179,179,179)" stroke-linejoin="round" d="M 1818,4027 L 1968,4027"/>
 <path fill="none" stroke="rgb(179,179,179)" stroke-linejoin="round" d="M 1818,4027 L 1968,4027"/>
 <path fill="none" stroke="rgb(179,179,179)" stroke-linejoin="round" d="M 1818,3422 L 1968,3422"/>
 <path fill="none" stroke="rgb(179,179,179)" stroke-linejoin="round" d="M 1818,3422 L 1968,3422"/>
 <path fill="none" stroke="rgb(179,179,179)" stroke-linejoin="round" d="M 1818,2816 L 1968,2816"/>
 <path fill="none" stroke="rgb(179,179,179)" stroke-linejoin="round" d="M 1818,2816 L 1968,2816"/>
 <path fill="none" stroke="rgb(179,179,179)" stroke-linejoin="round" d="M 1818,2211 L 1968,2211"/>
 <path fill="none" stroke="rgb(179,179,179)" stroke-linejoin="round" d="M 1818,2211 L 1968,2211"/>
 <path fill="none" stroke="rgb(179,179,179)" stroke-linejoin="round" d="M 1818,1605 L 1968,1605"/>
 <path fill="none" stroke="rgb(179,179,179)" stroke-linejoin="round" d="M 1818,1605 L 1968,1605"/>
 <path fill="none" stroke="rgb(179,179,179)" stroke-linejoin="round" d="M 1818,1000 L 1968,1000"/>
 <path fill="none" stroke="rgb(179,179,179)" stroke-linejoin="round" d="M 1818,1000 L 1968,1000"/>
 <path fill="none" stroke="rgb(179,179,179)" stroke-linejoin="round" d="M 1818,394 L 1968,394"/>
 <path fill="none" stroke="rgb(179,179,179)" stroke-linejoin="round" d="M 1818,394 L 1968,394"/>
 <path fill="none" stroke="rgb(179,179,179)" stroke-linejoin="round" d="M 1968,7659 L 1968,394"/>
 <path fill="rgb(42,96,153)" stroke="none" d="M 14672,7659 L 15882,7659 15882,3080 14672,3080 14672,7659 Z"/>
 <path fill="rgb(42,96,153)" stroke="none" d="M 12252,7659 L 13462,7659 13462,4492 12252,4492 12252,7659 Z"/>
 <path fill="rgb(42,96,153)" stroke="none" d="M 9832,7659 L 11042,7659 11042,2960 9832,2960 9832,7659 Z"/>
 <path fill="rgb(42,96,153)" stroke="none" d="M 7413,7659 L 8622,7659 8622,1250 7413,1250 7413,7659 Z"/>
 <path fill="rgb(42,96,153)" stroke="none" d="M 4993,7659 L 6203,7659 6203,6718 4993,6718 4993,7659 Z"/>
 <path fill="rgb(42,96,153)" stroke="none" d="M 2573,7659 L 3783,7659 3783,5644 2573,5644 2573,7659 Z"/>
 <text class="TextShape"><tspan class="TextParagraph" font-family="Liberation Sans, sans-serif" font-size="353px" font-weight="400"><tspan class="TextPosition" x="2754" y="8227"><tspan fill="rgb(0,0,0)" stroke="none">02:43</tspan></tspan></tspan></text>
 <text class="TextShape"><tspan class="TextParagraph" font-family="Liberation Sans, sans-serif" font-size="353px" font-weight="400"><tspan class="TextPosition" x="5174" y="8227"><tspan fill="rgb(0,0,0)" stroke="none">05:13</tspan></tspan></tspan></text>
 <text class="TextShape"><tspan class="TextParagraph" font-family="Liberation Sans, sans-serif" font-size="353px" font-weight="400"><tspan class="TextPosition" x="7593" y="8227"><tspan fill="rgb(0,0,0)" stroke="none">02:28</tspan></tspan></tspan></text>
 <text class="TextShape"><tspan class="TextParagraph" font-family="Liberation Sans, sans-serif" font-size="353px" font-weight="400"><tspan class="TextPosition" x="10013" y="8227"><tspan fill="rgb(0,0,0)" stroke="none">03:57</tspan></tspan></tspan></text>
 <text class="TextShape"><tspan class="TextParagraph" font-family="Liberation Sans, sans-serif" font-size="353px" font-weight="400"><tspan class="TextPosition" x="12434" y="8227"><tspan fill="rgb(0,0,0)" stroke="none">01:59</tspan></tspan></tspan></text>
 <text class="TextShape"><tspan class="TextParagraph" font-family="Liberation Sans, sans-serif" font-size="353px" font-weight="400"><tspan class="TextPosition" x="14854" y="8227"><tspan fill="rgb(0,0,0)" stroke="none">03:32</tspan></tspan></tspan></text>
 <text class="TextShape"><tspan class="TextParagraph" font-family="Liberation Sans, sans-serif" font-size="353px" font-weight="400"><tspan class="TextPosition" x="1533" y="7780"><tspan fill="rgb(0,0,0)" stroke="none">0</tspan></tspan></tspan></text>
 <text class="TextShape"><tspan class="TextParagraph" font-family="Liberation Sans, sans-serif" font-size="353px" font-weight="400"><tspan class="TextPosition" x="1533" y="7174"><tspan fill="rgb(0,0,0)" stroke="none">1</tspan></tspan></tspan></text>
 <text class="TextShape"><tspan class="TextParagraph" font-family="Liberation Sans, sans-serif" font-size="353px" font-weight="400"><tspan class="TextPosition" x="1533" y="6569"><tspan fill="rgb(0,0,0)" stroke="none">2</tspan></tspan></tspan></text>
 <text class="TextShape"><tspan class="TextParagraph" font-family="Liberation Sans, sans-serif" font-size="353px" font-weight="400"><tspan class="TextPosition" x="1533" y="5963"><tspan fill="rgb(0,0,0)" stroke="none">3</tspan></tspan></tspan></text>
 <text class="TextShape"><tspan class="TextParagraph" font-family="Liberation Sans, sans-serif" font-size="353px" font-weight="400"><tspan class="TextPosition" x="1533" y="5358"><tspan fill="rgb(0,0,0)" stroke="none">4</tspan></tspan></tspan></text>
 <text class="TextShape"><tspan class="TextParagraph" font-family="Liberation Sans, sans-serif" font-size="353px" font-weight="400"><tspan class="TextPosition" x="1533" y="4752"><tspan fill="rgb(0,0,0)" stroke="none">5</tspan></tspan></tspan></text>
 <text class="TextShape"><tspan class="TextParagraph" font-family="Liberation Sans, sans-serif" font-size="353px" font-weight="400"><tspan class="TextPosition" x="1533" y="4147"><tspan fill="rgb(0,0,0)" stroke="none">6</tspan></tspan></tspan></text>
 <text class="TextShape"><tspan class="TextParagraph" font-family="Liberation Sans, sans-serif" font-size="353px" font-weight="400"><tspan class="TextPosition" x="1533" y="3542"><tspan fill="rgb(0,0,0)" stroke="none">7</tspan></tspan></tspan></text>
 <text class="TextShape"><tspan class="TextParagraph" font-family="Liberation Sans, sans-serif" font-size="353px" font-weight="400"><tspan class="TextPosition" x="1533" y="2936"><tspan fill="rgb(0,0,0)" stroke="none">8</tspan></tspan></tspan></text>
 <text class="TextShape"><tspan class="TextParagraph" font-family="Liberation Sans, sans-serif" font-size="353px" font-weight="400"><tspan class="TextPosition" x="1533" y="2331"><tspan fill="rgb(0,0,0)" stroke="none">9</tspan></tspan></tspan></text>
 <text class="TextShape"><tspan class="TextParagraph" font-family="Liberation Sans, sans-serif" font-size="353px" font-weight="400"><tspan class="TextPosition" x="1348" y="1725"><tspan fill="rgb(0,0,0)" stroke="none">10</tspan></tspan></tspan></text>
 <text class="TextShape"><tspan class="TextParagraph" font-family="Liberation Sans, sans-serif" font-size="353px" font-weight="400"><tspan class="TextPosition" x="1348" y="1120"><tspan fill="rgb(0,0,0)" stroke="none">11</tspan></tspan></tspan></text>
 <text class="TextShape"><tspan class="TextParagraph" font-family="Liberation Sans, sans-serif" font-size="353px" font-weight="400"><tspan class="TextPosition" x="1348" y="514"><tspan fill="rgb(0,0,0)" stroke="none">12</tspan></tspan></tspan></text>
 <text class="TextShape"><tspan class="TextParagraph" font-family="Liberation Sans, sans-serif" font-size="353px" font-weight="400"><tspan class="TextPosition" x="2847" y="5466"><tspan fill="rgb(0,0,0)" stroke="none">3,33</tspan></tspan></tspan></text>
 <text class="TextShape"><tspan class="TextParagraph" font-family="Liberation Sans, sans-serif" font-size="353px" font-weight="400"><tspan class="TextPosition" x="5267" y="6540"><tspan fill="rgb(0,0,0)" stroke="none">1,55</tspan></tspan></tspan></text>
 <text class="TextShape"><tspan class="TextParagraph" font-family="Liberation Sans, sans-serif" font-size="353px" font-weight="400"><tspan class="TextPosition" x="7594" y="1072"><tspan fill="rgb(0,0,0)" stroke="none">10,59</tspan></tspan></tspan></text>
 <text class="TextShape"><tspan class="TextParagraph" font-family="Liberation Sans, sans-serif" font-size="353px" font-weight="400"><tspan class="TextPosition" x="10107" y="2782"><tspan fill="rgb(0,0,0)" stroke="none">7,76</tspan></tspan></tspan></text>
 <text class="TextShape"><tspan class="TextParagraph" font-family="Liberation Sans, sans-serif" font-size="353px" font-weight="400"><tspan class="TextPosition" x="12527" y="4314"><tspan fill="rgb(0,0,0)" stroke="none">5,23</tspan></tspan></tspan></text>
 <text class="TextShape"><tspan class="TextParagraph" font-family="Liberation Sans, sans-serif" font-size="353px" font-weight="400"><tspan class="TextPosition" x="14947" y="2902"><tspan fill="rgb(0,0,0)" stroke="none">7,56</tspan></tspan></tspan></text>
 <text class="TextShape"><tspan class="TextParagraph" font-family="Liberation Sans, sans-serif" font-size="318px" font-weight="400"><tspan class="TextPosition" x="7342" y="9017"><tspan fill="rgb(0,0,0)" stroke="none">Benötigte Zeit [MM:ss]</tspan></tspan></tspan><tspan class="TextParagraph" font-family="Liberation Sans, sans-serif" font-size="318px" font-weight="400"><tspan class="TextPosition" x="7342" y="9387"><tspan fill="rgb(0,0,0)" stroke="none">    </tspan><tspan fill="rgb(0,0,0)" stroke="none">(zeitlich geordnet)</tspan></tspan></tspan></text>
 <text class="TextShape" transform="rotate(-90 837 6619)"><tspan class="TextParagraph" font-family="Liberation Sans, sans-serif" font-size="318px" font-weight="400"><tspan class="TextPosition" x="837" y="6619"><tspan fill="rgb(0,0,0)" stroke="none">Betrag des Differenzvektors [mm]</tspan></tspan></tspan></text>
</svg>